<mxfile host="app.diagrams.net" agent="Mozilla/5.0 (Windows NT 10.0; Win64; x64) AppleWebKit/537.36 (KHTML, like Gecko) Chrome/129.0.0.0 Safari/537.36" version="24.7.17">
  <diagram name="Page-1" id="p7PE7uuWtr1hoT6QXmRB">
    <mxGraphModel dx="3200" dy="1846" grid="1" gridSize="10" guides="1" tooltips="1" connect="1" arrows="1" fold="1" page="1" pageScale="1" pageWidth="850" pageHeight="1100" background="#17629b" math="0" shadow="0">
      <root>
        <mxCell id="0" />
        <mxCell id="1" parent="0" />
        <mxCell id="J2T-gxT4WpOQnh0m6OvD-1" value="Customer_Info" style="whiteSpace=wrap;html=1;align=center;" parent="1" vertex="1">
          <mxGeometry x="380" y="410" width="100" height="60" as="geometry" />
        </mxCell>
        <mxCell id="J2T-gxT4WpOQnh0m6OvD-13" style="edgeStyle=orthogonalEdgeStyle;rounded=0;orthogonalLoop=1;jettySize=auto;html=1;" parent="1" source="J2T-gxT4WpOQnh0m6OvD-5" edge="1">
          <mxGeometry relative="1" as="geometry">
            <mxPoint x="380" y="410" as="targetPoint" />
            <Array as="points">
              <mxPoint x="345" y="370" />
              <mxPoint x="345" y="410" />
              <mxPoint x="380" y="410" />
            </Array>
          </mxGeometry>
        </mxCell>
        <mxCell id="J2T-gxT4WpOQnh0m6OvD-5" value="Phone" style="ellipse;whiteSpace=wrap;html=1;align=center;" parent="1" vertex="1">
          <mxGeometry x="210" y="350" width="100" height="40" as="geometry" />
        </mxCell>
        <mxCell id="J2T-gxT4WpOQnh0m6OvD-12" style="edgeStyle=orthogonalEdgeStyle;rounded=0;orthogonalLoop=1;jettySize=auto;html=1;entryX=0;entryY=0.5;entryDx=0;entryDy=0;" parent="1" source="J2T-gxT4WpOQnh0m6OvD-7" target="J2T-gxT4WpOQnh0m6OvD-1" edge="1">
          <mxGeometry relative="1" as="geometry" />
        </mxCell>
        <mxCell id="J2T-gxT4WpOQnh0m6OvD-7" value="Address" style="ellipse;whiteSpace=wrap;html=1;align=center;" parent="1" vertex="1">
          <mxGeometry x="210" y="400" width="100" height="40" as="geometry" />
        </mxCell>
        <mxCell id="J2T-gxT4WpOQnh0m6OvD-16" style="edgeStyle=orthogonalEdgeStyle;rounded=0;orthogonalLoop=1;jettySize=auto;html=1;entryX=0.75;entryY=0;entryDx=0;entryDy=0;" parent="1" source="J2T-gxT4WpOQnh0m6OvD-8" target="J2T-gxT4WpOQnh0m6OvD-1" edge="1">
          <mxGeometry relative="1" as="geometry">
            <mxPoint x="510" y="420" as="targetPoint" />
          </mxGeometry>
        </mxCell>
        <mxCell id="J2T-gxT4WpOQnh0m6OvD-8" value="ID" style="ellipse;whiteSpace=wrap;html=1;align=center;" parent="1" vertex="1">
          <mxGeometry x="490" y="370" width="100" height="40" as="geometry" />
        </mxCell>
        <mxCell id="J2T-gxT4WpOQnh0m6OvD-9" value="DOB" style="ellipse;whiteSpace=wrap;html=1;align=center;" parent="1" vertex="1">
          <mxGeometry x="230" y="480" width="100" height="40" as="geometry" />
        </mxCell>
        <mxCell id="J2T-gxT4WpOQnh0m6OvD-14" style="edgeStyle=orthogonalEdgeStyle;rounded=0;orthogonalLoop=1;jettySize=auto;html=1;entryX=0.136;entryY=1.03;entryDx=0;entryDy=0;entryPerimeter=0;" parent="1" source="J2T-gxT4WpOQnh0m6OvD-9" target="J2T-gxT4WpOQnh0m6OvD-1" edge="1">
          <mxGeometry relative="1" as="geometry" />
        </mxCell>
        <mxCell id="J2T-gxT4WpOQnh0m6OvD-185" style="edgeStyle=orthogonalEdgeStyle;rounded=0;orthogonalLoop=1;jettySize=auto;html=1;" parent="1" source="J2T-gxT4WpOQnh0m6OvD-17" target="J2T-gxT4WpOQnh0m6OvD-1" edge="1">
          <mxGeometry relative="1" as="geometry">
            <Array as="points">
              <mxPoint x="480" y="340" />
              <mxPoint x="480" y="365" />
              <mxPoint x="440" y="365" />
            </Array>
          </mxGeometry>
        </mxCell>
        <mxCell id="J2T-gxT4WpOQnh0m6OvD-17" value="Phone" style="ellipse;shape=doubleEllipse;margin=3;whiteSpace=wrap;html=1;align=center;" parent="1" vertex="1">
          <mxGeometry x="490" y="320" width="100" height="40" as="geometry" />
        </mxCell>
        <mxCell id="J2T-gxT4WpOQnh0m6OvD-18" value="Email" style="ellipse;shape=doubleEllipse;margin=3;whiteSpace=wrap;html=1;align=center;" parent="1" vertex="1">
          <mxGeometry x="480" y="270" width="100" height="40" as="geometry" />
        </mxCell>
        <mxCell id="J2T-gxT4WpOQnh0m6OvD-19" style="edgeStyle=orthogonalEdgeStyle;rounded=0;orthogonalLoop=1;jettySize=auto;html=1;entryX=0.5;entryY=0;entryDx=0;entryDy=0;" parent="1" source="J2T-gxT4WpOQnh0m6OvD-18" target="J2T-gxT4WpOQnh0m6OvD-1" edge="1">
          <mxGeometry relative="1" as="geometry">
            <Array as="points">
              <mxPoint x="430" y="290" />
            </Array>
          </mxGeometry>
        </mxCell>
        <mxCell id="J2T-gxT4WpOQnh0m6OvD-20" value="Order" style="whiteSpace=wrap;html=1;align=center;" parent="1" vertex="1">
          <mxGeometry x="715" y="130" width="100" height="40" as="geometry" />
        </mxCell>
        <mxCell id="Hanso2pDS1r3rdOY-9_z-1" style="edgeStyle=orthogonalEdgeStyle;rounded=0;orthogonalLoop=1;jettySize=auto;html=1;entryX=0.75;entryY=0;entryDx=0;entryDy=0;" parent="1" source="J2T-gxT4WpOQnh0m6OvD-27" target="J2T-gxT4WpOQnh0m6OvD-20" edge="1">
          <mxGeometry relative="1" as="geometry">
            <Array as="points">
              <mxPoint x="820" y="90" />
              <mxPoint x="790" y="90" />
            </Array>
          </mxGeometry>
        </mxCell>
        <mxCell id="J2T-gxT4WpOQnh0m6OvD-27" value="Date" style="ellipse;whiteSpace=wrap;html=1;align=center;" parent="1" vertex="1">
          <mxGeometry x="850" y="40" width="100" height="40" as="geometry" />
        </mxCell>
        <mxCell id="J2T-gxT4WpOQnh0m6OvD-36" style="edgeStyle=orthogonalEdgeStyle;rounded=0;orthogonalLoop=1;jettySize=auto;html=1;" parent="1" source="J2T-gxT4WpOQnh0m6OvD-33" edge="1">
          <mxGeometry relative="1" as="geometry">
            <mxPoint x="810" y="130" as="targetPoint" />
            <Array as="points">
              <mxPoint x="810" y="100" />
              <mxPoint x="810" y="130" />
            </Array>
          </mxGeometry>
        </mxCell>
        <mxCell id="J2T-gxT4WpOQnh0m6OvD-33" value="ID" style="ellipse;whiteSpace=wrap;html=1;align=center;" parent="1" vertex="1">
          <mxGeometry x="825" y="80" width="100" height="40" as="geometry" />
        </mxCell>
        <mxCell id="Hanso2pDS1r3rdOY-9_z-2" style="edgeStyle=orthogonalEdgeStyle;rounded=0;orthogonalLoop=1;jettySize=auto;html=1;entryX=0;entryY=0;entryDx=0;entryDy=0;" parent="1" source="J2T-gxT4WpOQnh0m6OvD-34" target="J2T-gxT4WpOQnh0m6OvD-20" edge="1">
          <mxGeometry relative="1" as="geometry">
            <Array as="points">
              <mxPoint x="690" y="120" />
              <mxPoint x="715" y="120" />
            </Array>
          </mxGeometry>
        </mxCell>
        <mxCell id="J2T-gxT4WpOQnh0m6OvD-34" value="Order_Status" style="ellipse;whiteSpace=wrap;html=1;align=center;" parent="1" vertex="1">
          <mxGeometry x="590" width="100" height="40" as="geometry" />
        </mxCell>
        <mxCell id="J2T-gxT4WpOQnh0m6OvD-37" value="Product" style="whiteSpace=wrap;html=1;align=center;" parent="1" vertex="1">
          <mxGeometry x="1280" y="800" width="100" height="40" as="geometry" />
        </mxCell>
        <mxCell id="J2T-gxT4WpOQnh0m6OvD-38" style="edgeStyle=orthogonalEdgeStyle;rounded=0;orthogonalLoop=1;jettySize=auto;html=1;entryX=0.25;entryY=0;entryDx=0;entryDy=0;" parent="1" source="J2T-gxT4WpOQnh0m6OvD-39" target="J2T-gxT4WpOQnh0m6OvD-37" edge="1">
          <mxGeometry relative="1" as="geometry">
            <mxPoint x="1410" y="790" as="targetPoint" />
            <Array as="points">
              <mxPoint x="1265" y="740" />
              <mxPoint x="1305" y="740" />
            </Array>
          </mxGeometry>
        </mxCell>
        <mxCell id="J2T-gxT4WpOQnh0m6OvD-39" value="Name" style="ellipse;whiteSpace=wrap;html=1;align=center;" parent="1" vertex="1">
          <mxGeometry x="1215" y="670" width="100" height="40" as="geometry" />
        </mxCell>
        <mxCell id="J2T-gxT4WpOQnh0m6OvD-40" style="edgeStyle=orthogonalEdgeStyle;rounded=0;orthogonalLoop=1;jettySize=auto;html=1;entryX=0.75;entryY=0;entryDx=0;entryDy=0;" parent="1" source="J2T-gxT4WpOQnh0m6OvD-41" target="J2T-gxT4WpOQnh0m6OvD-37" edge="1">
          <mxGeometry relative="1" as="geometry" />
        </mxCell>
        <mxCell id="J2T-gxT4WpOQnh0m6OvD-41" value="ID" style="ellipse;whiteSpace=wrap;html=1;align=center;" parent="1" vertex="1">
          <mxGeometry x="1390" y="750" width="100" height="40" as="geometry" />
        </mxCell>
        <mxCell id="J2T-gxT4WpOQnh0m6OvD-42" style="edgeStyle=orthogonalEdgeStyle;rounded=0;orthogonalLoop=1;jettySize=auto;html=1;entryX=0.176;entryY=-0.06;entryDx=0;entryDy=0;entryPerimeter=0;" parent="1" source="J2T-gxT4WpOQnh0m6OvD-43" target="J2T-gxT4WpOQnh0m6OvD-37" edge="1">
          <mxGeometry relative="1" as="geometry" />
        </mxCell>
        <mxCell id="J2T-gxT4WpOQnh0m6OvD-43" value="Description" style="ellipse;whiteSpace=wrap;html=1;align=center;" parent="1" vertex="1">
          <mxGeometry x="1160" y="740" width="100" height="40" as="geometry" />
        </mxCell>
        <mxCell id="J2T-gxT4WpOQnh0m6OvD-45" value="" style="edgeStyle=orthogonalEdgeStyle;rounded=0;orthogonalLoop=1;jettySize=auto;html=1;" parent="1" source="J2T-gxT4WpOQnh0m6OvD-44" target="J2T-gxT4WpOQnh0m6OvD-37" edge="1">
          <mxGeometry relative="1" as="geometry" />
        </mxCell>
        <mxCell id="J2T-gxT4WpOQnh0m6OvD-44" value="Price" style="ellipse;whiteSpace=wrap;html=1;align=center;" parent="1" vertex="1">
          <mxGeometry x="1150" y="800" width="100" height="40" as="geometry" />
        </mxCell>
        <mxCell id="J2T-gxT4WpOQnh0m6OvD-46" value="Payment_Method" style="whiteSpace=wrap;html=1;align=center;" parent="1" vertex="1">
          <mxGeometry x="-130" y="825" width="100" height="40" as="geometry" />
        </mxCell>
        <mxCell id="J2T-gxT4WpOQnh0m6OvD-47" style="edgeStyle=orthogonalEdgeStyle;rounded=0;orthogonalLoop=1;jettySize=auto;html=1;" parent="1" source="J2T-gxT4WpOQnh0m6OvD-48" edge="1">
          <mxGeometry relative="1" as="geometry">
            <mxPoint x="-100" y="825" as="targetPoint" />
            <Array as="points">
              <mxPoint x="-110" y="780" />
              <mxPoint x="-100" y="780" />
            </Array>
          </mxGeometry>
        </mxCell>
        <mxCell id="J2T-gxT4WpOQnh0m6OvD-48" value="Type" style="ellipse;whiteSpace=wrap;html=1;align=center;" parent="1" vertex="1">
          <mxGeometry x="-180" y="675" width="100" height="40" as="geometry" />
        </mxCell>
        <mxCell id="J2T-gxT4WpOQnh0m6OvD-49" style="edgeStyle=orthogonalEdgeStyle;rounded=0;orthogonalLoop=1;jettySize=auto;html=1;entryX=0.75;entryY=0;entryDx=0;entryDy=0;" parent="1" source="J2T-gxT4WpOQnh0m6OvD-50" target="J2T-gxT4WpOQnh0m6OvD-46" edge="1">
          <mxGeometry relative="1" as="geometry" />
        </mxCell>
        <mxCell id="J2T-gxT4WpOQnh0m6OvD-50" value="ID" style="ellipse;whiteSpace=wrap;html=1;align=center;" parent="1" vertex="1">
          <mxGeometry x="-20" y="775" width="100" height="40" as="geometry" />
        </mxCell>
        <mxCell id="J2T-gxT4WpOQnh0m6OvD-55" value="Support_Ticket" style="whiteSpace=wrap;html=1;align=center;" parent="1" vertex="1">
          <mxGeometry x="555" y="1000" width="100" height="40" as="geometry" />
        </mxCell>
        <mxCell id="J2T-gxT4WpOQnh0m6OvD-56" style="edgeStyle=orthogonalEdgeStyle;rounded=0;orthogonalLoop=1;jettySize=auto;html=1;entryX=0.35;entryY=0;entryDx=0;entryDy=0;entryPerimeter=0;" parent="1" target="J2T-gxT4WpOQnh0m6OvD-55" edge="1">
          <mxGeometry relative="1" as="geometry">
            <mxPoint x="610" y="990.0000000000002" as="targetPoint" />
            <mxPoint x="510" y="910" as="sourcePoint" />
          </mxGeometry>
        </mxCell>
        <mxCell id="J2T-gxT4WpOQnh0m6OvD-57" value="Date" style="ellipse;whiteSpace=wrap;html=1;align=center;" parent="1" vertex="1">
          <mxGeometry x="455" y="880" width="100" height="40" as="geometry" />
        </mxCell>
        <mxCell id="J2T-gxT4WpOQnh0m6OvD-58" style="edgeStyle=orthogonalEdgeStyle;rounded=0;orthogonalLoop=1;jettySize=auto;html=1;entryX=0.75;entryY=0;entryDx=0;entryDy=0;" parent="1" source="J2T-gxT4WpOQnh0m6OvD-59" target="J2T-gxT4WpOQnh0m6OvD-55" edge="1">
          <mxGeometry relative="1" as="geometry">
            <Array as="points">
              <mxPoint x="605" y="945" />
              <mxPoint x="630" y="945" />
            </Array>
          </mxGeometry>
        </mxCell>
        <mxCell id="J2T-gxT4WpOQnh0m6OvD-59" value="ID" style="ellipse;whiteSpace=wrap;html=1;align=center;" parent="1" vertex="1">
          <mxGeometry x="555" y="850" width="100" height="40" as="geometry" />
        </mxCell>
        <mxCell id="J2T-gxT4WpOQnh0m6OvD-60" style="edgeStyle=orthogonalEdgeStyle;rounded=0;orthogonalLoop=1;jettySize=auto;html=1;entryX=0.176;entryY=-0.06;entryDx=0;entryDy=0;entryPerimeter=0;" parent="1" source="J2T-gxT4WpOQnh0m6OvD-61" target="J2T-gxT4WpOQnh0m6OvD-55" edge="1">
          <mxGeometry relative="1" as="geometry" />
        </mxCell>
        <mxCell id="J2T-gxT4WpOQnh0m6OvD-61" value="Issue" style="ellipse;whiteSpace=wrap;html=1;align=center;" parent="1" vertex="1">
          <mxGeometry x="435" y="940" width="100" height="40" as="geometry" />
        </mxCell>
        <mxCell id="J2T-gxT4WpOQnh0m6OvD-62" value="" style="edgeStyle=orthogonalEdgeStyle;rounded=0;orthogonalLoop=1;jettySize=auto;html=1;" parent="1" source="J2T-gxT4WpOQnh0m6OvD-63" target="J2T-gxT4WpOQnh0m6OvD-55" edge="1">
          <mxGeometry relative="1" as="geometry" />
        </mxCell>
        <mxCell id="J2T-gxT4WpOQnh0m6OvD-63" value="Status" style="ellipse;whiteSpace=wrap;html=1;align=center;" parent="1" vertex="1">
          <mxGeometry x="425" y="1000" width="100" height="40" as="geometry" />
        </mxCell>
        <mxCell id="J2T-gxT4WpOQnh0m6OvD-64" value="Feedback" style="whiteSpace=wrap;html=1;align=center;" parent="1" vertex="1">
          <mxGeometry x="1000" y="590" width="100" height="40" as="geometry" />
        </mxCell>
        <mxCell id="J2T-gxT4WpOQnh0m6OvD-65" style="edgeStyle=orthogonalEdgeStyle;rounded=0;orthogonalLoop=1;jettySize=auto;html=1;entryX=0.5;entryY=0;entryDx=0;entryDy=0;" parent="1" source="J2T-gxT4WpOQnh0m6OvD-66" target="J2T-gxT4WpOQnh0m6OvD-64" edge="1">
          <mxGeometry relative="1" as="geometry">
            <mxPoint x="1130" y="580" as="targetPoint" />
          </mxGeometry>
        </mxCell>
        <mxCell id="J2T-gxT4WpOQnh0m6OvD-66" value="Rating" style="ellipse;whiteSpace=wrap;html=1;align=center;" parent="1" vertex="1">
          <mxGeometry x="1000" y="500" width="100" height="40" as="geometry" />
        </mxCell>
        <mxCell id="J2T-gxT4WpOQnh0m6OvD-67" style="edgeStyle=orthogonalEdgeStyle;rounded=0;orthogonalLoop=1;jettySize=auto;html=1;entryX=0.75;entryY=0;entryDx=0;entryDy=0;" parent="1" source="J2T-gxT4WpOQnh0m6OvD-68" target="J2T-gxT4WpOQnh0m6OvD-64" edge="1">
          <mxGeometry relative="1" as="geometry" />
        </mxCell>
        <mxCell id="J2T-gxT4WpOQnh0m6OvD-68" value="ID" style="ellipse;whiteSpace=wrap;html=1;align=center;" parent="1" vertex="1">
          <mxGeometry x="1110" y="540" width="100" height="40" as="geometry" />
        </mxCell>
        <mxCell id="J2T-gxT4WpOQnh0m6OvD-69" style="edgeStyle=orthogonalEdgeStyle;rounded=0;orthogonalLoop=1;jettySize=auto;html=1;entryX=0.25;entryY=1;entryDx=0;entryDy=0;" parent="1" source="J2T-gxT4WpOQnh0m6OvD-70" target="J2T-gxT4WpOQnh0m6OvD-64" edge="1">
          <mxGeometry relative="1" as="geometry">
            <mxPoint x="1018" y="640" as="targetPoint" />
          </mxGeometry>
        </mxCell>
        <mxCell id="J2T-gxT4WpOQnh0m6OvD-70" value="Comment" style="ellipse;whiteSpace=wrap;html=1;align=center;" parent="1" vertex="1">
          <mxGeometry x="850" y="650" width="100" height="40" as="geometry" />
        </mxCell>
        <mxCell id="J2T-gxT4WpOQnh0m6OvD-71" value="" style="edgeStyle=orthogonalEdgeStyle;rounded=0;orthogonalLoop=1;jettySize=auto;html=1;" parent="1" source="J2T-gxT4WpOQnh0m6OvD-72" target="J2T-gxT4WpOQnh0m6OvD-64" edge="1">
          <mxGeometry relative="1" as="geometry" />
        </mxCell>
        <mxCell id="J2T-gxT4WpOQnh0m6OvD-72" value="Date" style="ellipse;whiteSpace=wrap;html=1;align=center;" parent="1" vertex="1">
          <mxGeometry x="1000" y="680" width="100" height="40" as="geometry" />
        </mxCell>
        <mxCell id="J2T-gxT4WpOQnh0m6OvD-73" value="Shipping_Address" style="whiteSpace=wrap;html=1;align=center;" parent="1" vertex="1">
          <mxGeometry x="-100" y="560" width="100" height="40" as="geometry" />
        </mxCell>
        <mxCell id="J2T-gxT4WpOQnh0m6OvD-74" style="edgeStyle=orthogonalEdgeStyle;rounded=0;orthogonalLoop=1;jettySize=auto;html=1;entryX=0.5;entryY=0;entryDx=0;entryDy=0;" parent="1" source="J2T-gxT4WpOQnh0m6OvD-75" target="J2T-gxT4WpOQnh0m6OvD-73" edge="1">
          <mxGeometry relative="1" as="geometry">
            <mxPoint x="30" y="550" as="targetPoint" />
          </mxGeometry>
        </mxCell>
        <mxCell id="J2T-gxT4WpOQnh0m6OvD-75" value="Location" style="ellipse;whiteSpace=wrap;html=1;align=center;" parent="1" vertex="1">
          <mxGeometry x="-100" y="470" width="100" height="40" as="geometry" />
        </mxCell>
        <mxCell id="J2T-gxT4WpOQnh0m6OvD-76" style="edgeStyle=orthogonalEdgeStyle;rounded=0;orthogonalLoop=1;jettySize=auto;html=1;entryX=0.75;entryY=0;entryDx=0;entryDy=0;" parent="1" source="J2T-gxT4WpOQnh0m6OvD-77" target="J2T-gxT4WpOQnh0m6OvD-73" edge="1">
          <mxGeometry relative="1" as="geometry" />
        </mxCell>
        <mxCell id="J2T-gxT4WpOQnh0m6OvD-77" value="ID" style="ellipse;whiteSpace=wrap;html=1;align=center;" parent="1" vertex="1">
          <mxGeometry x="10" y="510" width="100" height="40" as="geometry" />
        </mxCell>
        <mxCell id="J2T-gxT4WpOQnh0m6OvD-83" style="edgeStyle=orthogonalEdgeStyle;rounded=0;orthogonalLoop=1;jettySize=auto;html=1;entryX=1;entryY=0;entryDx=0;entryDy=0;" parent="1" source="J2T-gxT4WpOQnh0m6OvD-82" target="J2T-gxT4WpOQnh0m6OvD-75" edge="1">
          <mxGeometry relative="1" as="geometry" />
        </mxCell>
        <mxCell id="J2T-gxT4WpOQnh0m6OvD-82" value="Country" style="ellipse;whiteSpace=wrap;html=1;align=center;" parent="1" vertex="1">
          <mxGeometry x="-35" y="380" width="100" height="40" as="geometry" />
        </mxCell>
        <mxCell id="J2T-gxT4WpOQnh0m6OvD-84" value="State" style="ellipse;whiteSpace=wrap;html=1;align=center;" parent="1" vertex="1">
          <mxGeometry x="-140" y="380" width="100" height="40" as="geometry" />
        </mxCell>
        <mxCell id="J2T-gxT4WpOQnh0m6OvD-85" style="edgeStyle=orthogonalEdgeStyle;rounded=0;orthogonalLoop=1;jettySize=auto;html=1;entryX=0.656;entryY=-0.06;entryDx=0;entryDy=0;entryPerimeter=0;" parent="1" source="J2T-gxT4WpOQnh0m6OvD-84" target="J2T-gxT4WpOQnh0m6OvD-75" edge="1">
          <mxGeometry relative="1" as="geometry" />
        </mxCell>
        <mxCell id="J2T-gxT4WpOQnh0m6OvD-86" value="City" style="ellipse;whiteSpace=wrap;html=1;align=center;" parent="1" vertex="1">
          <mxGeometry x="-240" y="410" width="100" height="40" as="geometry" />
        </mxCell>
        <mxCell id="J2T-gxT4WpOQnh0m6OvD-87" style="edgeStyle=orthogonalEdgeStyle;rounded=0;orthogonalLoop=1;jettySize=auto;html=1;entryX=0.056;entryY=0.2;entryDx=0;entryDy=0;entryPerimeter=0;" parent="1" source="J2T-gxT4WpOQnh0m6OvD-86" target="J2T-gxT4WpOQnh0m6OvD-75" edge="1">
          <mxGeometry relative="1" as="geometry">
            <Array as="points">
              <mxPoint x="-110" y="430" />
              <mxPoint x="-110" y="478" />
            </Array>
          </mxGeometry>
        </mxCell>
        <mxCell id="J2T-gxT4WpOQnh0m6OvD-89" value="" style="edgeStyle=orthogonalEdgeStyle;rounded=0;orthogonalLoop=1;jettySize=auto;html=1;" parent="1" source="J2T-gxT4WpOQnh0m6OvD-88" target="J2T-gxT4WpOQnh0m6OvD-75" edge="1">
          <mxGeometry relative="1" as="geometry" />
        </mxCell>
        <mxCell id="J2T-gxT4WpOQnh0m6OvD-88" value="Street" style="ellipse;whiteSpace=wrap;html=1;align=center;" parent="1" vertex="1">
          <mxGeometry x="-240" y="480" width="100" height="40" as="geometry" />
        </mxCell>
        <mxCell id="J2T-gxT4WpOQnh0m6OvD-91" value="" style="edgeStyle=orthogonalEdgeStyle;rounded=0;orthogonalLoop=1;jettySize=auto;html=1;" parent="1" source="J2T-gxT4WpOQnh0m6OvD-90" target="J2T-gxT4WpOQnh0m6OvD-73" edge="1">
          <mxGeometry relative="1" as="geometry" />
        </mxCell>
        <mxCell id="J2T-gxT4WpOQnh0m6OvD-90" value="Postal_Code" style="ellipse;whiteSpace=wrap;html=1;align=center;" parent="1" vertex="1">
          <mxGeometry x="-240" y="560" width="100" height="40" as="geometry" />
        </mxCell>
        <mxCell id="J2T-gxT4WpOQnh0m6OvD-111" value="Segment" style="whiteSpace=wrap;html=1;align=center;" parent="1" vertex="1">
          <mxGeometry x="-500" y="605" width="100" height="40" as="geometry" />
        </mxCell>
        <mxCell id="J2T-gxT4WpOQnh0m6OvD-112" style="edgeStyle=orthogonalEdgeStyle;rounded=0;orthogonalLoop=1;jettySize=auto;html=1;entryX=0.5;entryY=0;entryDx=0;entryDy=0;" parent="1" source="J2T-gxT4WpOQnh0m6OvD-113" target="J2T-gxT4WpOQnh0m6OvD-111" edge="1">
          <mxGeometry relative="1" as="geometry">
            <mxPoint x="-370" y="595" as="targetPoint" />
          </mxGeometry>
        </mxCell>
        <mxCell id="J2T-gxT4WpOQnh0m6OvD-113" value="Name" style="ellipse;whiteSpace=wrap;html=1;align=center;" parent="1" vertex="1">
          <mxGeometry x="-500" y="515" width="100" height="40" as="geometry" />
        </mxCell>
        <mxCell id="J2T-gxT4WpOQnh0m6OvD-114" style="edgeStyle=orthogonalEdgeStyle;rounded=0;orthogonalLoop=1;jettySize=auto;html=1;entryX=0.75;entryY=0;entryDx=0;entryDy=0;" parent="1" source="J2T-gxT4WpOQnh0m6OvD-115" target="J2T-gxT4WpOQnh0m6OvD-111" edge="1">
          <mxGeometry relative="1" as="geometry" />
        </mxCell>
        <mxCell id="J2T-gxT4WpOQnh0m6OvD-115" value="ID" style="ellipse;whiteSpace=wrap;html=1;align=center;" parent="1" vertex="1">
          <mxGeometry x="-390" y="555" width="100" height="40" as="geometry" />
        </mxCell>
        <mxCell id="J2T-gxT4WpOQnh0m6OvD-116" style="edgeStyle=orthogonalEdgeStyle;rounded=0;orthogonalLoop=1;jettySize=auto;html=1;entryX=0.176;entryY=-0.06;entryDx=0;entryDy=0;entryPerimeter=0;" parent="1" source="J2T-gxT4WpOQnh0m6OvD-117" target="J2T-gxT4WpOQnh0m6OvD-111" edge="1">
          <mxGeometry relative="1" as="geometry" />
        </mxCell>
        <mxCell id="J2T-gxT4WpOQnh0m6OvD-117" value="Criteria" style="ellipse;whiteSpace=wrap;html=1;align=center;" parent="1" vertex="1">
          <mxGeometry x="-620" y="545" width="100" height="40" as="geometry" />
        </mxCell>
        <mxCell id="J2T-gxT4WpOQnh0m6OvD-120" value="Referral" style="whiteSpace=wrap;html=1;align=center;" parent="1" vertex="1">
          <mxGeometry x="30" y="260" width="100" height="40" as="geometry" />
        </mxCell>
        <mxCell id="J2T-gxT4WpOQnh0m6OvD-121" style="edgeStyle=orthogonalEdgeStyle;rounded=0;orthogonalLoop=1;jettySize=auto;html=1;entryX=0.5;entryY=0;entryDx=0;entryDy=0;" parent="1" source="J2T-gxT4WpOQnh0m6OvD-122" target="J2T-gxT4WpOQnh0m6OvD-120" edge="1">
          <mxGeometry relative="1" as="geometry">
            <mxPoint x="160" y="250" as="targetPoint" />
          </mxGeometry>
        </mxCell>
        <mxCell id="J2T-gxT4WpOQnh0m6OvD-122" value="Discount" style="ellipse;whiteSpace=wrap;html=1;align=center;" parent="1" vertex="1">
          <mxGeometry x="30" y="170" width="100" height="40" as="geometry" />
        </mxCell>
        <mxCell id="J2T-gxT4WpOQnh0m6OvD-123" style="edgeStyle=orthogonalEdgeStyle;rounded=0;orthogonalLoop=1;jettySize=auto;html=1;entryX=0.75;entryY=0;entryDx=0;entryDy=0;" parent="1" source="J2T-gxT4WpOQnh0m6OvD-124" target="J2T-gxT4WpOQnh0m6OvD-120" edge="1">
          <mxGeometry relative="1" as="geometry" />
        </mxCell>
        <mxCell id="J2T-gxT4WpOQnh0m6OvD-124" value="ID" style="ellipse;whiteSpace=wrap;html=1;align=center;" parent="1" vertex="1">
          <mxGeometry x="140" y="210" width="100" height="40" as="geometry" />
        </mxCell>
        <mxCell id="J2T-gxT4WpOQnh0m6OvD-125" style="edgeStyle=orthogonalEdgeStyle;rounded=0;orthogonalLoop=1;jettySize=auto;html=1;entryX=0.176;entryY=-0.06;entryDx=0;entryDy=0;entryPerimeter=0;" parent="1" source="J2T-gxT4WpOQnh0m6OvD-126" target="J2T-gxT4WpOQnh0m6OvD-120" edge="1">
          <mxGeometry relative="1" as="geometry" />
        </mxCell>
        <mxCell id="J2T-gxT4WpOQnh0m6OvD-126" value="Referral Date" style="ellipse;whiteSpace=wrap;html=1;align=center;" parent="1" vertex="1">
          <mxGeometry x="-90" y="200" width="100" height="40" as="geometry" />
        </mxCell>
        <mxCell id="J2T-gxT4WpOQnh0m6OvD-127" value="Relationship" style="shape=rhombus;perimeter=rhombusPerimeter;whiteSpace=wrap;html=1;align=center;" parent="1" vertex="1">
          <mxGeometry x="705" y="390" width="120" height="60" as="geometry" />
        </mxCell>
        <mxCell id="J2T-gxT4WpOQnh0m6OvD-132" value="" style="endArrow=none;html=1;rounded=0;entryX=0;entryY=0.5;entryDx=0;entryDy=0;exitX=1;exitY=0.25;exitDx=0;exitDy=0;" parent="1" source="J2T-gxT4WpOQnh0m6OvD-1" target="J2T-gxT4WpOQnh0m6OvD-127" edge="1">
          <mxGeometry relative="1" as="geometry">
            <mxPoint x="510" y="439.28999999999996" as="sourcePoint" />
            <mxPoint x="670" y="439.28999999999996" as="targetPoint" />
          </mxGeometry>
        </mxCell>
        <mxCell id="J2T-gxT4WpOQnh0m6OvD-133" value="1" style="resizable=0;html=1;whiteSpace=wrap;align=right;verticalAlign=bottom;" parent="J2T-gxT4WpOQnh0m6OvD-132" connectable="0" vertex="1">
          <mxGeometry x="1" relative="1" as="geometry" />
        </mxCell>
        <mxCell id="J2T-gxT4WpOQnh0m6OvD-134" value="" style="shape=link;html=1;rounded=0;exitX=0.5;exitY=1;exitDx=0;exitDy=0;entryX=0.5;entryY=0;entryDx=0;entryDy=0;" parent="1" source="J2T-gxT4WpOQnh0m6OvD-20" target="J2T-gxT4WpOQnh0m6OvD-127" edge="1">
          <mxGeometry relative="1" as="geometry">
            <mxPoint x="655" y="299.29" as="sourcePoint" />
            <mxPoint x="815" y="299.29" as="targetPoint" />
          </mxGeometry>
        </mxCell>
        <mxCell id="J2T-gxT4WpOQnh0m6OvD-135" value="N" style="resizable=0;html=1;whiteSpace=wrap;align=right;verticalAlign=bottom;" parent="J2T-gxT4WpOQnh0m6OvD-134" connectable="0" vertex="1">
          <mxGeometry x="1" relative="1" as="geometry">
            <mxPoint x="-5" y="-10" as="offset" />
          </mxGeometry>
        </mxCell>
        <mxCell id="J2T-gxT4WpOQnh0m6OvD-145" value="Relationship" style="shape=rhombus;perimeter=rhombusPerimeter;whiteSpace=wrap;html=1;align=center;" parent="1" vertex="1">
          <mxGeometry x="1280" y="400" width="120" height="60" as="geometry" />
        </mxCell>
        <mxCell id="J2T-gxT4WpOQnh0m6OvD-148" value="" style="endArrow=none;html=1;rounded=0;entryX=0.5;entryY=1;entryDx=0;entryDy=0;exitX=0.619;exitY=0.038;exitDx=0;exitDy=0;exitPerimeter=0;" parent="1" source="J2T-gxT4WpOQnh0m6OvD-37" target="J2T-gxT4WpOQnh0m6OvD-145" edge="1">
          <mxGeometry relative="1" as="geometry">
            <mxPoint x="1050" y="790" as="sourcePoint" />
            <mxPoint x="1000" y="548" as="targetPoint" />
          </mxGeometry>
        </mxCell>
        <mxCell id="J2T-gxT4WpOQnh0m6OvD-149" value="N" style="resizable=0;html=1;whiteSpace=wrap;align=right;verticalAlign=bottom;" parent="J2T-gxT4WpOQnh0m6OvD-148" connectable="0" vertex="1">
          <mxGeometry x="1" relative="1" as="geometry">
            <mxPoint x="-10" y="20" as="offset" />
          </mxGeometry>
        </mxCell>
        <mxCell id="J2T-gxT4WpOQnh0m6OvD-150" value="" style="endArrow=none;html=1;rounded=0;entryX=0.5;entryY=0;entryDx=0;entryDy=0;exitX=0.75;exitY=1;exitDx=0;exitDy=0;" parent="1" source="J2T-gxT4WpOQnh0m6OvD-20" target="J2T-gxT4WpOQnh0m6OvD-145" edge="1">
          <mxGeometry relative="1" as="geometry">
            <mxPoint x="1050" y="150" as="sourcePoint" />
            <mxPoint x="1040" y="370" as="targetPoint" />
            <Array as="points">
              <mxPoint x="790" y="270" />
              <mxPoint x="1340" y="270" />
            </Array>
          </mxGeometry>
        </mxCell>
        <mxCell id="J2T-gxT4WpOQnh0m6OvD-151" value="N" style="resizable=0;html=1;whiteSpace=wrap;align=right;verticalAlign=bottom;" parent="J2T-gxT4WpOQnh0m6OvD-150" connectable="0" vertex="1">
          <mxGeometry x="1" relative="1" as="geometry">
            <mxPoint x="-10" as="offset" />
          </mxGeometry>
        </mxCell>
        <mxCell id="J2T-gxT4WpOQnh0m6OvD-163" value="Relationship" style="shape=rhombus;perimeter=rhombusPerimeter;whiteSpace=wrap;html=1;align=center;" parent="1" vertex="1">
          <mxGeometry x="-730" y="390" width="120" height="60" as="geometry" />
        </mxCell>
        <mxCell id="J2T-gxT4WpOQnh0m6OvD-165" value="" style="endArrow=none;html=1;rounded=0;exitX=0.5;exitY=1;exitDx=0;exitDy=0;entryX=0.5;entryY=1;entryDx=0;entryDy=0;" parent="1" source="J2T-gxT4WpOQnh0m6OvD-46" target="J2T-gxT4WpOQnh0m6OvD-163" edge="1">
          <mxGeometry relative="1" as="geometry">
            <mxPoint x="130" y="610" as="sourcePoint" />
            <mxPoint x="-30" y="610" as="targetPoint" />
            <Array as="points">
              <mxPoint x="-80" y="970" />
              <mxPoint x="-660" y="970" />
            </Array>
          </mxGeometry>
        </mxCell>
        <mxCell id="J2T-gxT4WpOQnh0m6OvD-166" value="1" style="resizable=0;html=1;whiteSpace=wrap;align=right;verticalAlign=bottom;" parent="J2T-gxT4WpOQnh0m6OvD-165" connectable="0" vertex="1">
          <mxGeometry x="1" relative="1" as="geometry">
            <mxPoint x="-10" y="20" as="offset" />
          </mxGeometry>
        </mxCell>
        <mxCell id="J2T-gxT4WpOQnh0m6OvD-167" value="" style="shape=link;html=1;rounded=0;entryX=0.5;entryY=0;entryDx=0;entryDy=0;exitX=0;exitY=0.5;exitDx=0;exitDy=0;" parent="1" source="J2T-gxT4WpOQnh0m6OvD-20" target="J2T-gxT4WpOQnh0m6OvD-163" edge="1">
          <mxGeometry relative="1" as="geometry">
            <mxPoint x="190" y="379.40999999999997" as="sourcePoint" />
            <mxPoint x="270" y="150" as="targetPoint" />
            <Array as="points">
              <mxPoint x="-670" y="160" />
            </Array>
          </mxGeometry>
        </mxCell>
        <mxCell id="J2T-gxT4WpOQnh0m6OvD-168" value="N" style="resizable=0;html=1;whiteSpace=wrap;align=right;verticalAlign=bottom;" parent="J2T-gxT4WpOQnh0m6OvD-167" connectable="0" vertex="1">
          <mxGeometry x="1" relative="1" as="geometry">
            <mxPoint x="-10" as="offset" />
          </mxGeometry>
        </mxCell>
        <mxCell id="J2T-gxT4WpOQnh0m6OvD-169" value="Relationship" style="shape=rhombus;perimeter=rhombusPerimeter;whiteSpace=wrap;html=1;align=center;" parent="1" vertex="1">
          <mxGeometry x="620" y="610" width="120" height="60" as="geometry" />
        </mxCell>
        <mxCell id="J2T-gxT4WpOQnh0m6OvD-170" value="" style="endArrow=none;html=1;rounded=0;entryX=0.5;entryY=0;entryDx=0;entryDy=0;exitX=1;exitY=0.75;exitDx=0;exitDy=0;" parent="1" source="J2T-gxT4WpOQnh0m6OvD-1" target="J2T-gxT4WpOQnh0m6OvD-169" edge="1">
          <mxGeometry relative="1" as="geometry">
            <mxPoint x="470" y="500" as="sourcePoint" />
            <mxPoint x="740" y="539.17" as="targetPoint" />
            <Array as="points">
              <mxPoint x="680" y="455" />
              <mxPoint x="680" y="520" />
            </Array>
          </mxGeometry>
        </mxCell>
        <mxCell id="J2T-gxT4WpOQnh0m6OvD-171" value="1" style="resizable=0;html=1;whiteSpace=wrap;align=right;verticalAlign=bottom;" parent="J2T-gxT4WpOQnh0m6OvD-170" connectable="0" vertex="1">
          <mxGeometry x="1" relative="1" as="geometry">
            <mxPoint y="-10" as="offset" />
          </mxGeometry>
        </mxCell>
        <mxCell id="J2T-gxT4WpOQnh0m6OvD-174" value="" style="shape=link;html=1;rounded=0;exitX=1;exitY=0.5;exitDx=0;exitDy=0;entryX=0.5;entryY=1;entryDx=0;entryDy=0;" parent="1" source="J2T-gxT4WpOQnh0m6OvD-55" target="J2T-gxT4WpOQnh0m6OvD-169" edge="1">
          <mxGeometry relative="1" as="geometry">
            <mxPoint x="630" y="759.33" as="sourcePoint" />
            <mxPoint x="790" y="759.33" as="targetPoint" />
            <Array as="points">
              <mxPoint x="680" y="1020" />
            </Array>
          </mxGeometry>
        </mxCell>
        <mxCell id="J2T-gxT4WpOQnh0m6OvD-175" value="N" style="resizable=0;html=1;whiteSpace=wrap;align=right;verticalAlign=bottom;" parent="J2T-gxT4WpOQnh0m6OvD-174" connectable="0" vertex="1">
          <mxGeometry x="1" relative="1" as="geometry">
            <mxPoint x="-10" y="20" as="offset" />
          </mxGeometry>
        </mxCell>
        <mxCell id="J2T-gxT4WpOQnh0m6OvD-178" value="Relationship" style="shape=rhombus;perimeter=rhombusPerimeter;whiteSpace=wrap;html=1;align=center;" parent="1" vertex="1">
          <mxGeometry x="750" y="520" width="120" height="60" as="geometry" />
        </mxCell>
        <mxCell id="J2T-gxT4WpOQnh0m6OvD-179" value="" style="endArrow=none;html=1;rounded=0;exitX=1;exitY=0.5;exitDx=0;exitDy=0;entryX=0;entryY=0.5;entryDx=0;entryDy=0;" parent="1" source="J2T-gxT4WpOQnh0m6OvD-1" target="J2T-gxT4WpOQnh0m6OvD-178" edge="1">
          <mxGeometry relative="1" as="geometry">
            <mxPoint x="720" y="498.33" as="sourcePoint" />
            <mxPoint x="880" y="498.33" as="targetPoint" />
            <Array as="points">
              <mxPoint x="710" y="440" />
              <mxPoint x="710" y="500" />
              <mxPoint x="710" y="550" />
            </Array>
          </mxGeometry>
        </mxCell>
        <mxCell id="J2T-gxT4WpOQnh0m6OvD-180" value="1" style="resizable=0;html=1;whiteSpace=wrap;align=right;verticalAlign=bottom;" parent="J2T-gxT4WpOQnh0m6OvD-179" connectable="0" vertex="1">
          <mxGeometry x="1" relative="1" as="geometry" />
        </mxCell>
        <mxCell id="J2T-gxT4WpOQnh0m6OvD-183" value="" style="shape=link;html=1;rounded=0;exitX=0;exitY=0.5;exitDx=0;exitDy=0;entryX=1;entryY=0.5;entryDx=0;entryDy=0;" parent="1" source="J2T-gxT4WpOQnh0m6OvD-64" target="J2T-gxT4WpOQnh0m6OvD-178" edge="1">
          <mxGeometry relative="1" as="geometry">
            <mxPoint x="1050" y="558.33" as="sourcePoint" />
            <mxPoint x="890" y="558.33" as="targetPoint" />
            <Array as="points">
              <mxPoint x="960" y="610" />
              <mxPoint x="960" y="550" />
            </Array>
          </mxGeometry>
        </mxCell>
        <mxCell id="J2T-gxT4WpOQnh0m6OvD-184" value="N" style="resizable=0;html=1;whiteSpace=wrap;align=right;verticalAlign=bottom;" parent="J2T-gxT4WpOQnh0m6OvD-183" connectable="0" vertex="1">
          <mxGeometry x="1" relative="1" as="geometry">
            <mxPoint x="10" as="offset" />
          </mxGeometry>
        </mxCell>
        <mxCell id="J2T-gxT4WpOQnh0m6OvD-187" value="Relationship" style="shape=rhombus;perimeter=rhombusPerimeter;whiteSpace=wrap;html=1;align=center;" parent="1" vertex="1">
          <mxGeometry x="120" y="550" width="120" height="60" as="geometry" />
        </mxCell>
        <mxCell id="J2T-gxT4WpOQnh0m6OvD-188" value="" style="endArrow=none;html=1;rounded=0;exitX=1;exitY=0.5;exitDx=0;exitDy=0;entryX=0;entryY=0.5;entryDx=0;entryDy=0;" parent="1" source="J2T-gxT4WpOQnh0m6OvD-73" target="J2T-gxT4WpOQnh0m6OvD-187" edge="1">
          <mxGeometry relative="1" as="geometry">
            <mxPoint y="630" as="sourcePoint" />
            <mxPoint x="160" y="630" as="targetPoint" />
          </mxGeometry>
        </mxCell>
        <mxCell id="J2T-gxT4WpOQnh0m6OvD-189" value="N" style="resizable=0;html=1;whiteSpace=wrap;align=right;verticalAlign=bottom;" parent="J2T-gxT4WpOQnh0m6OvD-188" connectable="0" vertex="1">
          <mxGeometry x="1" relative="1" as="geometry" />
        </mxCell>
        <mxCell id="J2T-gxT4WpOQnh0m6OvD-190" value="" style="endArrow=none;html=1;rounded=0;entryX=0.5;entryY=0;entryDx=0;entryDy=0;exitX=0;exitY=0.75;exitDx=0;exitDy=0;" parent="1" source="J2T-gxT4WpOQnh0m6OvD-1" target="J2T-gxT4WpOQnh0m6OvD-187" edge="1">
          <mxGeometry relative="1" as="geometry">
            <mxPoint x="170" y="489.29" as="sourcePoint" />
            <mxPoint x="330" y="489.29" as="targetPoint" />
            <Array as="points">
              <mxPoint x="180" y="460" />
            </Array>
          </mxGeometry>
        </mxCell>
        <mxCell id="J2T-gxT4WpOQnh0m6OvD-191" value="N" style="resizable=0;html=1;whiteSpace=wrap;align=right;verticalAlign=bottom;" parent="J2T-gxT4WpOQnh0m6OvD-190" connectable="0" vertex="1">
          <mxGeometry x="1" relative="1" as="geometry">
            <mxPoint as="offset" />
          </mxGeometry>
        </mxCell>
        <mxCell id="J2T-gxT4WpOQnh0m6OvD-192" value="Relationship" style="shape=rhombus;perimeter=rhombusPerimeter;whiteSpace=wrap;html=1;align=center;" parent="1" vertex="1">
          <mxGeometry x="220" y="610" width="120" height="60" as="geometry" />
        </mxCell>
        <mxCell id="J2T-gxT4WpOQnh0m6OvD-193" value="" style="shape=link;html=1;rounded=0;entryX=0;entryY=0.5;entryDx=0;entryDy=0;exitX=1;exitY=0.75;exitDx=0;exitDy=0;" parent="1" source="J2T-gxT4WpOQnh0m6OvD-111" target="J2T-gxT4WpOQnh0m6OvD-192" edge="1">
          <mxGeometry relative="1" as="geometry">
            <mxPoint x="-20" y="639.17" as="sourcePoint" />
            <mxPoint x="140" y="639.17" as="targetPoint" />
            <Array as="points">
              <mxPoint x="-140" y="640" />
            </Array>
          </mxGeometry>
        </mxCell>
        <mxCell id="J2T-gxT4WpOQnh0m6OvD-194" value="N" style="resizable=0;html=1;whiteSpace=wrap;align=right;verticalAlign=bottom;" parent="J2T-gxT4WpOQnh0m6OvD-193" connectable="0" vertex="1">
          <mxGeometry x="1" relative="1" as="geometry" />
        </mxCell>
        <mxCell id="J2T-gxT4WpOQnh0m6OvD-195" value="" style="shape=link;html=1;rounded=0;exitX=0.387;exitY=1;exitDx=0;exitDy=0;exitPerimeter=0;entryX=1;entryY=0.5;entryDx=0;entryDy=0;" parent="1" source="J2T-gxT4WpOQnh0m6OvD-1" target="J2T-gxT4WpOQnh0m6OvD-192" edge="1">
          <mxGeometry relative="1" as="geometry">
            <mxPoint x="300" y="569.17" as="sourcePoint" />
            <mxPoint x="460" y="569.17" as="targetPoint" />
            <Array as="points">
              <mxPoint x="420" y="640" />
            </Array>
          </mxGeometry>
        </mxCell>
        <mxCell id="J2T-gxT4WpOQnh0m6OvD-196" value="N" style="resizable=0;html=1;whiteSpace=wrap;align=right;verticalAlign=bottom;" parent="J2T-gxT4WpOQnh0m6OvD-195" connectable="0" vertex="1">
          <mxGeometry x="1" relative="1" as="geometry" />
        </mxCell>
        <mxCell id="J2T-gxT4WpOQnh0m6OvD-197" value="Relationship" style="shape=rhombus;perimeter=rhombusPerimeter;whiteSpace=wrap;html=1;align=center;" parent="1" vertex="1">
          <mxGeometry x="250" y="250" width="120" height="60" as="geometry" />
        </mxCell>
        <mxCell id="J2T-gxT4WpOQnh0m6OvD-200" value="" style="endArrow=none;html=1;rounded=0;exitX=1;exitY=0.5;exitDx=0;exitDy=0;entryX=0;entryY=0.5;entryDx=0;entryDy=0;" parent="1" source="J2T-gxT4WpOQnh0m6OvD-120" target="J2T-gxT4WpOQnh0m6OvD-197" edge="1">
          <mxGeometry relative="1" as="geometry">
            <mxPoint x="160" y="310" as="sourcePoint" />
            <mxPoint x="320" y="310" as="targetPoint" />
          </mxGeometry>
        </mxCell>
        <mxCell id="J2T-gxT4WpOQnh0m6OvD-201" value="N" style="resizable=0;html=1;whiteSpace=wrap;align=right;verticalAlign=bottom;" parent="J2T-gxT4WpOQnh0m6OvD-200" connectable="0" vertex="1">
          <mxGeometry x="1" relative="1" as="geometry" />
        </mxCell>
        <mxCell id="J2T-gxT4WpOQnh0m6OvD-202" value="" style="endArrow=none;html=1;rounded=0;exitX=0.25;exitY=0;exitDx=0;exitDy=0;entryX=1;entryY=0.5;entryDx=0;entryDy=0;" parent="1" source="J2T-gxT4WpOQnh0m6OvD-1" target="J2T-gxT4WpOQnh0m6OvD-197" edge="1">
          <mxGeometry relative="1" as="geometry">
            <mxPoint x="510" y="350" as="sourcePoint" />
            <mxPoint x="350" y="350" as="targetPoint" />
            <Array as="points">
              <mxPoint x="405" y="280" />
            </Array>
          </mxGeometry>
        </mxCell>
        <mxCell id="J2T-gxT4WpOQnh0m6OvD-203" value="1" style="resizable=0;html=1;whiteSpace=wrap;align=right;verticalAlign=bottom;" parent="J2T-gxT4WpOQnh0m6OvD-202" connectable="0" vertex="1">
          <mxGeometry x="1" relative="1" as="geometry" />
        </mxCell>
        <mxCell id="J2T-gxT4WpOQnh0m6OvD-204" value="Relationship" style="shape=rhombus;perimeter=rhombusPerimeter;whiteSpace=wrap;html=1;align=center;" parent="1" vertex="1">
          <mxGeometry x="480" y="560" width="120" height="60" as="geometry" />
        </mxCell>
        <mxCell id="J2T-gxT4WpOQnh0m6OvD-205" value="" style="endArrow=none;html=1;rounded=0;exitX=0.75;exitY=1;exitDx=0;exitDy=0;entryX=0;entryY=0.5;entryDx=0;entryDy=0;" parent="1" source="J2T-gxT4WpOQnh0m6OvD-1" target="J2T-gxT4WpOQnh0m6OvD-204" edge="1">
          <mxGeometry relative="1" as="geometry">
            <mxPoint x="500" y="518.67" as="sourcePoint" />
            <mxPoint x="660" y="518.67" as="targetPoint" />
            <Array as="points">
              <mxPoint x="455" y="590" />
            </Array>
          </mxGeometry>
        </mxCell>
        <mxCell id="J2T-gxT4WpOQnh0m6OvD-206" value="1" style="resizable=0;html=1;whiteSpace=wrap;align=right;verticalAlign=bottom;" parent="J2T-gxT4WpOQnh0m6OvD-205" connectable="0" vertex="1">
          <mxGeometry x="1" relative="1" as="geometry" />
        </mxCell>
        <mxCell id="J2T-gxT4WpOQnh0m6OvD-209" value="" style="shape=link;html=1;rounded=0;entryX=0.5;entryY=0;entryDx=0;entryDy=0;exitX=1;exitY=1;exitDx=0;exitDy=0;" parent="1" source="J2T-gxT4WpOQnh0m6OvD-1" target="J2T-gxT4WpOQnh0m6OvD-204" edge="1">
          <mxGeometry relative="1" as="geometry">
            <mxPoint x="510" y="520" as="sourcePoint" />
            <mxPoint x="670" y="520" as="targetPoint" />
            <Array as="points">
              <mxPoint x="540" y="470" />
            </Array>
          </mxGeometry>
        </mxCell>
        <mxCell id="J2T-gxT4WpOQnh0m6OvD-210" value="N" style="resizable=0;html=1;whiteSpace=wrap;align=right;verticalAlign=bottom;" parent="J2T-gxT4WpOQnh0m6OvD-209" connectable="0" vertex="1">
          <mxGeometry x="1" relative="1" as="geometry" />
        </mxCell>
        <mxCell id="D_THjBh7Bt4chswfbO_R-2" style="edgeStyle=orthogonalEdgeStyle;rounded=0;orthogonalLoop=1;jettySize=auto;html=1;entryX=1;entryY=0.5;entryDx=0;entryDy=0;" parent="1" source="D_THjBh7Bt4chswfbO_R-1" target="J2T-gxT4WpOQnh0m6OvD-145" edge="1">
          <mxGeometry relative="1" as="geometry" />
        </mxCell>
        <mxCell id="D_THjBh7Bt4chswfbO_R-1" value="Amount" style="ellipse;whiteSpace=wrap;html=1;align=center;" parent="1" vertex="1">
          <mxGeometry x="1460" y="410" width="90" height="40" as="geometry" />
        </mxCell>
        <mxCell id="Hanso2pDS1r3rdOY-9_z-3" value="Ship_Date" style="ellipse;whiteSpace=wrap;html=1;align=center;" parent="1" vertex="1">
          <mxGeometry x="590" y="-50" width="100" height="40" as="geometry" />
        </mxCell>
        <mxCell id="Hanso2pDS1r3rdOY-9_z-4" style="edgeStyle=orthogonalEdgeStyle;rounded=0;orthogonalLoop=1;jettySize=auto;html=1;entryX=0.067;entryY=0.012;entryDx=0;entryDy=0;entryPerimeter=0;" parent="1" source="Hanso2pDS1r3rdOY-9_z-3" target="J2T-gxT4WpOQnh0m6OvD-20" edge="1">
          <mxGeometry relative="1" as="geometry" />
        </mxCell>
        <mxCell id="Hanso2pDS1r3rdOY-9_z-6" style="edgeStyle=orthogonalEdgeStyle;rounded=0;orthogonalLoop=1;jettySize=auto;html=1;entryX=0.25;entryY=0;entryDx=0;entryDy=0;" parent="1" source="Hanso2pDS1r3rdOY-9_z-5" target="J2T-gxT4WpOQnh0m6OvD-20" edge="1">
          <mxGeometry relative="1" as="geometry" />
        </mxCell>
        <mxCell id="Hanso2pDS1r3rdOY-9_z-5" value="Total_Price" style="ellipse;whiteSpace=wrap;html=1;align=center;" parent="1" vertex="1">
          <mxGeometry x="605" y="-90" width="100" height="40" as="geometry" />
        </mxCell>
        <mxCell id="Hanso2pDS1r3rdOY-9_z-7" value="Freight" style="ellipse;whiteSpace=wrap;html=1;align=center;" parent="1" vertex="1">
          <mxGeometry x="860" y="-10" width="100" height="40" as="geometry" />
        </mxCell>
        <mxCell id="Hanso2pDS1r3rdOY-9_z-8" style="edgeStyle=orthogonalEdgeStyle;rounded=0;orthogonalLoop=1;jettySize=auto;html=1;entryX=0.68;entryY=-0.081;entryDx=0;entryDy=0;entryPerimeter=0;" parent="1" source="Hanso2pDS1r3rdOY-9_z-7" target="J2T-gxT4WpOQnh0m6OvD-20" edge="1">
          <mxGeometry relative="1" as="geometry" />
        </mxCell>
        <mxCell id="Hanso2pDS1r3rdOY-9_z-9" value="Tax_Amount" style="ellipse;whiteSpace=wrap;html=1;align=center;" parent="1" vertex="1">
          <mxGeometry x="700" y="-130" width="100" height="40" as="geometry" />
        </mxCell>
        <mxCell id="Hanso2pDS1r3rdOY-9_z-10" style="edgeStyle=orthogonalEdgeStyle;rounded=0;orthogonalLoop=1;jettySize=auto;html=1;entryX=0.338;entryY=-0.04;entryDx=0;entryDy=0;entryPerimeter=0;" parent="1" source="Hanso2pDS1r3rdOY-9_z-9" target="J2T-gxT4WpOQnh0m6OvD-20" edge="1">
          <mxGeometry relative="1" as="geometry" />
        </mxCell>
        <mxCell id="Hanso2pDS1r3rdOY-9_z-12" style="edgeStyle=orthogonalEdgeStyle;rounded=0;orthogonalLoop=1;jettySize=auto;html=1;entryX=0.5;entryY=0;entryDx=0;entryDy=0;" parent="1" source="Hanso2pDS1r3rdOY-9_z-11" target="J2T-gxT4WpOQnh0m6OvD-20" edge="1">
          <mxGeometry relative="1" as="geometry" />
        </mxCell>
        <mxCell id="Hanso2pDS1r3rdOY-9_z-11" value="Total_Due" style="ellipse;whiteSpace=wrap;html=1;align=center;" parent="1" vertex="1">
          <mxGeometry x="850" y="-60" width="100" height="40" as="geometry" />
        </mxCell>
        <mxCell id="Hanso2pDS1r3rdOY-9_z-13" value="Category" style="whiteSpace=wrap;html=1;align=center;" parent="1" vertex="1">
          <mxGeometry x="1295" y="1030" width="100" height="40" as="geometry" />
        </mxCell>
        <mxCell id="Hanso2pDS1r3rdOY-9_z-22" style="edgeStyle=orthogonalEdgeStyle;rounded=0;orthogonalLoop=1;jettySize=auto;html=1;entryX=0.25;entryY=0;entryDx=0;entryDy=0;" parent="1" source="Hanso2pDS1r3rdOY-9_z-15" target="Hanso2pDS1r3rdOY-9_z-13" edge="1">
          <mxGeometry relative="1" as="geometry" />
        </mxCell>
        <mxCell id="Hanso2pDS1r3rdOY-9_z-15" value="Name" style="ellipse;whiteSpace=wrap;html=1;align=center;" parent="1" vertex="1">
          <mxGeometry x="1175" y="980" width="100" height="40" as="geometry" />
        </mxCell>
        <mxCell id="Hanso2pDS1r3rdOY-9_z-16" style="edgeStyle=orthogonalEdgeStyle;rounded=0;orthogonalLoop=1;jettySize=auto;html=1;entryX=0.75;entryY=0;entryDx=0;entryDy=0;" parent="1" source="Hanso2pDS1r3rdOY-9_z-17" target="Hanso2pDS1r3rdOY-9_z-13" edge="1">
          <mxGeometry relative="1" as="geometry" />
        </mxCell>
        <mxCell id="Hanso2pDS1r3rdOY-9_z-17" value="ID" style="ellipse;whiteSpace=wrap;html=1;align=center;" parent="1" vertex="1">
          <mxGeometry x="1405" y="980" width="100" height="40" as="geometry" />
        </mxCell>
        <mxCell id="Hanso2pDS1r3rdOY-9_z-23" value="Relationship" style="shape=rhombus;perimeter=rhombusPerimeter;whiteSpace=wrap;html=1;align=center;" parent="1" vertex="1">
          <mxGeometry x="1285" y="890" width="120" height="60" as="geometry" />
        </mxCell>
        <mxCell id="Hanso2pDS1r3rdOY-9_z-26" value="" style="endArrow=none;html=1;rounded=0;entryX=0.5;entryY=1;entryDx=0;entryDy=0;exitX=0.5;exitY=0;exitDx=0;exitDy=0;" parent="1" source="Hanso2pDS1r3rdOY-9_z-13" target="Hanso2pDS1r3rdOY-9_z-23" edge="1">
          <mxGeometry relative="1" as="geometry">
            <mxPoint x="1100" y="880" as="sourcePoint" />
            <mxPoint x="1260" y="880" as="targetPoint" />
          </mxGeometry>
        </mxCell>
        <mxCell id="Hanso2pDS1r3rdOY-9_z-27" value="1" style="resizable=0;html=1;whiteSpace=wrap;align=right;verticalAlign=bottom;" parent="Hanso2pDS1r3rdOY-9_z-26" connectable="0" vertex="1">
          <mxGeometry x="1" relative="1" as="geometry">
            <mxPoint y="20" as="offset" />
          </mxGeometry>
        </mxCell>
        <mxCell id="Hanso2pDS1r3rdOY-9_z-28" value="" style="shape=link;html=1;rounded=0;entryX=0.5;entryY=0;entryDx=0;entryDy=0;exitX=0.651;exitY=0.998;exitDx=0;exitDy=0;exitPerimeter=0;" parent="1" source="J2T-gxT4WpOQnh0m6OvD-37" target="Hanso2pDS1r3rdOY-9_z-23" edge="1">
          <mxGeometry relative="1" as="geometry">
            <mxPoint x="1090" y="900" as="sourcePoint" />
            <mxPoint x="1250" y="900" as="targetPoint" />
          </mxGeometry>
        </mxCell>
        <mxCell id="Hanso2pDS1r3rdOY-9_z-29" value="N" style="resizable=0;html=1;whiteSpace=wrap;align=right;verticalAlign=bottom;" parent="Hanso2pDS1r3rdOY-9_z-28" connectable="0" vertex="1">
          <mxGeometry x="1" relative="1" as="geometry">
            <mxPoint x="-5" as="offset" />
          </mxGeometry>
        </mxCell>
        <mxCell id="Hanso2pDS1r3rdOY-9_z-30" value="SalesPerson" style="whiteSpace=wrap;html=1;align=center;" parent="1" vertex="1">
          <mxGeometry x="1200" y="190" width="100" height="40" as="geometry" />
        </mxCell>
        <mxCell id="Hanso2pDS1r3rdOY-9_z-31" style="edgeStyle=orthogonalEdgeStyle;rounded=0;orthogonalLoop=1;jettySize=auto;html=1;entryX=0.25;entryY=0;entryDx=0;entryDy=0;" parent="1" source="Hanso2pDS1r3rdOY-9_z-32" target="Hanso2pDS1r3rdOY-9_z-30" edge="1">
          <mxGeometry relative="1" as="geometry" />
        </mxCell>
        <mxCell id="Hanso2pDS1r3rdOY-9_z-32" value="Name" style="ellipse;whiteSpace=wrap;html=1;align=center;" parent="1" vertex="1">
          <mxGeometry x="1080" y="140" width="100" height="40" as="geometry" />
        </mxCell>
        <mxCell id="Hanso2pDS1r3rdOY-9_z-33" style="edgeStyle=orthogonalEdgeStyle;rounded=0;orthogonalLoop=1;jettySize=auto;html=1;entryX=0.75;entryY=0;entryDx=0;entryDy=0;" parent="1" source="Hanso2pDS1r3rdOY-9_z-34" target="Hanso2pDS1r3rdOY-9_z-30" edge="1">
          <mxGeometry relative="1" as="geometry" />
        </mxCell>
        <mxCell id="Hanso2pDS1r3rdOY-9_z-34" value="ID" style="ellipse;whiteSpace=wrap;html=1;align=center;" parent="1" vertex="1">
          <mxGeometry x="1310" y="140" width="100" height="40" as="geometry" />
        </mxCell>
        <mxCell id="Hanso2pDS1r3rdOY-9_z-37" value="Relationship" style="shape=rhombus;perimeter=rhombusPerimeter;whiteSpace=wrap;html=1;align=center;" parent="1" vertex="1">
          <mxGeometry x="930" y="160" width="120" height="60" as="geometry" />
        </mxCell>
        <mxCell id="Hanso2pDS1r3rdOY-9_z-40" value="" style="shape=link;html=1;rounded=0;entryX=0;entryY=0.5;entryDx=0;entryDy=0;exitX=1;exitY=0.5;exitDx=0;exitDy=0;" parent="1" source="J2T-gxT4WpOQnh0m6OvD-20" target="Hanso2pDS1r3rdOY-9_z-37" edge="1">
          <mxGeometry relative="1" as="geometry">
            <mxPoint x="910" y="200" as="sourcePoint" />
            <mxPoint x="1070" y="200" as="targetPoint" />
            <Array as="points">
              <mxPoint x="870" y="150" />
              <mxPoint x="870" y="190" />
            </Array>
          </mxGeometry>
        </mxCell>
        <mxCell id="Hanso2pDS1r3rdOY-9_z-41" value="N" style="resizable=0;html=1;whiteSpace=wrap;align=right;verticalAlign=bottom;" parent="Hanso2pDS1r3rdOY-9_z-40" connectable="0" vertex="1">
          <mxGeometry x="1" relative="1" as="geometry" />
        </mxCell>
        <mxCell id="skj9uMfnKRO0six6TWe7-1" value="Returns" style="rounded=1;arcSize=10;whiteSpace=wrap;html=1;align=center;" parent="1" vertex="1">
          <mxGeometry x="1520" y="260" width="100" height="40" as="geometry" />
        </mxCell>
        <mxCell id="skj9uMfnKRO0six6TWe7-6" style="edgeStyle=orthogonalEdgeStyle;rounded=0;orthogonalLoop=1;jettySize=auto;html=1;entryX=0.75;entryY=0;entryDx=0;entryDy=0;" parent="1" source="skj9uMfnKRO0six6TWe7-2" target="skj9uMfnKRO0six6TWe7-1" edge="1">
          <mxGeometry relative="1" as="geometry" />
        </mxCell>
        <mxCell id="skj9uMfnKRO0six6TWe7-2" value="ID" style="ellipse;whiteSpace=wrap;html=1;align=center;" parent="1" vertex="1">
          <mxGeometry x="1630" y="200" width="100" height="40" as="geometry" />
        </mxCell>
        <mxCell id="skj9uMfnKRO0six6TWe7-7" style="edgeStyle=orthogonalEdgeStyle;rounded=0;orthogonalLoop=1;jettySize=auto;html=1;entryX=1;entryY=0.5;entryDx=0;entryDy=0;" parent="1" source="skj9uMfnKRO0six6TWe7-3" target="skj9uMfnKRO0six6TWe7-1" edge="1">
          <mxGeometry relative="1" as="geometry" />
        </mxCell>
        <mxCell id="skj9uMfnKRO0six6TWe7-3" value="Reason" style="ellipse;whiteSpace=wrap;html=1;align=center;" parent="1" vertex="1">
          <mxGeometry x="1680" y="260" width="100" height="40" as="geometry" />
        </mxCell>
        <mxCell id="skj9uMfnKRO0six6TWe7-8" style="edgeStyle=orthogonalEdgeStyle;rounded=0;orthogonalLoop=1;jettySize=auto;html=1;entryX=0.75;entryY=1;entryDx=0;entryDy=0;" parent="1" source="skj9uMfnKRO0six6TWe7-4" target="skj9uMfnKRO0six6TWe7-1" edge="1">
          <mxGeometry relative="1" as="geometry" />
        </mxCell>
        <mxCell id="skj9uMfnKRO0six6TWe7-4" value="Ret_Date" style="ellipse;whiteSpace=wrap;html=1;align=center;" parent="1" vertex="1">
          <mxGeometry x="1680" y="330" width="100" height="40" as="geometry" />
        </mxCell>
        <mxCell id="skj9uMfnKRO0six6TWe7-9" value="Relationship" style="shape=rhombus;perimeter=rhombusPerimeter;whiteSpace=wrap;html=1;align=center;" parent="1" vertex="1">
          <mxGeometry x="1420" y="130" width="120" height="60" as="geometry" />
        </mxCell>
        <mxCell id="skj9uMfnKRO0six6TWe7-10" value="Relationship" style="shape=rhombus;perimeter=rhombusPerimeter;whiteSpace=wrap;html=1;align=center;" parent="1" vertex="1">
          <mxGeometry x="1610" y="440" width="120" height="60" as="geometry" />
        </mxCell>
        <mxCell id="skj9uMfnKRO0six6TWe7-11" value="" style="endArrow=none;html=1;rounded=0;exitX=0.4;exitY=0;exitDx=0;exitDy=0;exitPerimeter=0;entryX=0.5;entryY=1;entryDx=0;entryDy=0;" parent="1" source="skj9uMfnKRO0six6TWe7-1" target="skj9uMfnKRO0six6TWe7-9" edge="1">
          <mxGeometry relative="1" as="geometry">
            <mxPoint x="1400" y="208.95" as="sourcePoint" />
            <mxPoint x="1560" y="208.95" as="targetPoint" />
            <Array as="points">
              <mxPoint x="1560" y="240" />
              <mxPoint x="1480" y="240" />
            </Array>
          </mxGeometry>
        </mxCell>
        <mxCell id="skj9uMfnKRO0six6TWe7-12" value="1" style="resizable=0;html=1;whiteSpace=wrap;align=right;verticalAlign=bottom;" parent="skj9uMfnKRO0six6TWe7-11" connectable="0" vertex="1">
          <mxGeometry x="1" relative="1" as="geometry">
            <mxPoint x="-10" y="20" as="offset" />
          </mxGeometry>
        </mxCell>
        <mxCell id="skj9uMfnKRO0six6TWe7-13" value="" style="endArrow=none;html=1;rounded=0;entryX=0.5;entryY=0;entryDx=0;entryDy=0;exitX=0.394;exitY=1.067;exitDx=0;exitDy=0;exitPerimeter=0;" parent="1" source="skj9uMfnKRO0six6TWe7-1" target="skj9uMfnKRO0six6TWe7-10" edge="1">
          <mxGeometry relative="1" as="geometry">
            <mxPoint x="1330" y="290" as="sourcePoint" />
            <mxPoint x="1490" y="290" as="targetPoint" />
            <Array as="points">
              <mxPoint x="1559" y="390" />
              <mxPoint x="1670" y="390" />
            </Array>
          </mxGeometry>
        </mxCell>
        <mxCell id="skj9uMfnKRO0six6TWe7-14" value="1" style="resizable=0;html=1;whiteSpace=wrap;align=right;verticalAlign=bottom;" parent="skj9uMfnKRO0six6TWe7-13" connectable="0" vertex="1">
          <mxGeometry x="1" relative="1" as="geometry" />
        </mxCell>
        <mxCell id="skj9uMfnKRO0six6TWe7-15" value="" style="shape=link;html=1;rounded=0;exitX=1;exitY=0.5;exitDx=0;exitDy=0;entryX=0.5;entryY=1;entryDx=0;entryDy=0;" parent="1" source="J2T-gxT4WpOQnh0m6OvD-37" target="skj9uMfnKRO0six6TWe7-10" edge="1">
          <mxGeometry relative="1" as="geometry">
            <mxPoint x="1520" y="574.09" as="sourcePoint" />
            <mxPoint x="1680" y="574.09" as="targetPoint" />
            <Array as="points">
              <mxPoint x="1670" y="820" />
            </Array>
          </mxGeometry>
        </mxCell>
        <mxCell id="skj9uMfnKRO0six6TWe7-16" value="N" style="resizable=0;html=1;whiteSpace=wrap;align=right;verticalAlign=bottom;" parent="skj9uMfnKRO0six6TWe7-15" connectable="0" vertex="1">
          <mxGeometry x="1" relative="1" as="geometry">
            <mxPoint x="-10" y="15" as="offset" />
          </mxGeometry>
        </mxCell>
        <mxCell id="skj9uMfnKRO0six6TWe7-17" value="" style="shape=link;html=1;rounded=0;entryX=0.5;entryY=0;entryDx=0;entryDy=0;" parent="1" target="skj9uMfnKRO0six6TWe7-9" edge="1">
          <mxGeometry relative="1" as="geometry">
            <mxPoint x="815" y="130" as="sourcePoint" />
            <mxPoint x="1420" y="-1" as="targetPoint" />
            <Array as="points">
              <mxPoint x="1160" y="130" />
              <mxPoint x="1160" />
              <mxPoint x="1480" />
            </Array>
          </mxGeometry>
        </mxCell>
        <mxCell id="skj9uMfnKRO0six6TWe7-18" value="N" style="resizable=0;html=1;whiteSpace=wrap;align=right;verticalAlign=bottom;" parent="skj9uMfnKRO0six6TWe7-17" connectable="0" vertex="1">
          <mxGeometry x="1" relative="1" as="geometry" />
        </mxCell>
        <mxCell id="skj9uMfnKRO0six6TWe7-21" value="" style="endArrow=none;html=1;rounded=0;entryX=1;entryY=0.5;entryDx=0;entryDy=0;exitX=0;exitY=0.5;exitDx=0;exitDy=0;" parent="1" source="Hanso2pDS1r3rdOY-9_z-30" target="Hanso2pDS1r3rdOY-9_z-37" edge="1">
          <mxGeometry relative="1" as="geometry">
            <mxPoint x="1210" y="200" as="sourcePoint" />
            <mxPoint x="1370" y="200" as="targetPoint" />
            <Array as="points">
              <mxPoint x="1050" y="210" />
            </Array>
          </mxGeometry>
        </mxCell>
        <mxCell id="skj9uMfnKRO0six6TWe7-22" value="1" style="resizable=0;html=1;whiteSpace=wrap;align=right;verticalAlign=bottom;" parent="skj9uMfnKRO0six6TWe7-21" connectable="0" vertex="1">
          <mxGeometry x="1" relative="1" as="geometry" />
        </mxCell>
        <mxCell id="1nFw5Xqew1oU6oFwtXUB-5" value="Relationship" style="shape=rhombus;perimeter=rhombusPerimeter;whiteSpace=wrap;html=1;align=center;" vertex="1" parent="1">
          <mxGeometry x="-920" y="400" width="120" height="60" as="geometry" />
        </mxCell>
        <mxCell id="1nFw5Xqew1oU6oFwtXUB-6" value="" style="endArrow=none;html=1;rounded=0;entryX=0.5;entryY=1;entryDx=0;entryDy=0;exitX=0.75;exitY=1;exitDx=0;exitDy=0;" edge="1" parent="1" source="J2T-gxT4WpOQnh0m6OvD-46" target="1nFw5Xqew1oU6oFwtXUB-5">
          <mxGeometry relative="1" as="geometry">
            <mxPoint x="-890" y="595" as="sourcePoint" />
            <mxPoint x="-730" y="595" as="targetPoint" />
            <Array as="points">
              <mxPoint x="-50" y="1060" />
              <mxPoint x="-860" y="1060" />
            </Array>
          </mxGeometry>
        </mxCell>
        <mxCell id="1nFw5Xqew1oU6oFwtXUB-7" value="1" style="resizable=0;html=1;whiteSpace=wrap;align=right;verticalAlign=bottom;" connectable="0" vertex="1" parent="1nFw5Xqew1oU6oFwtXUB-6">
          <mxGeometry x="1" relative="1" as="geometry">
            <mxPoint y="20" as="offset" />
          </mxGeometry>
        </mxCell>
        <mxCell id="1nFw5Xqew1oU6oFwtXUB-8" value="" style="shape=link;html=1;rounded=0;entryX=0.5;entryY=0;entryDx=0;entryDy=0;exitX=0;exitY=0.25;exitDx=0;exitDy=0;" edge="1" parent="1" source="J2T-gxT4WpOQnh0m6OvD-20" target="1nFw5Xqew1oU6oFwtXUB-5">
          <mxGeometry relative="1" as="geometry">
            <mxPoint x="-610" y="280" as="sourcePoint" />
            <mxPoint x="-490" y="410" as="targetPoint" />
            <Array as="points">
              <mxPoint x="-220" y="140" />
              <mxPoint x="-860" y="140" />
            </Array>
          </mxGeometry>
        </mxCell>
        <mxCell id="1nFw5Xqew1oU6oFwtXUB-9" value="N" style="resizable=0;html=1;whiteSpace=wrap;align=right;verticalAlign=bottom;" connectable="0" vertex="1" parent="1nFw5Xqew1oU6oFwtXUB-8">
          <mxGeometry x="1" relative="1" as="geometry">
            <mxPoint x="-10" as="offset" />
          </mxGeometry>
        </mxCell>
        <mxCell id="1nFw5Xqew1oU6oFwtXUB-12" style="edgeStyle=orthogonalEdgeStyle;rounded=0;orthogonalLoop=1;jettySize=auto;html=1;entryX=0;entryY=0;entryDx=0;entryDy=0;" edge="1" parent="1" source="1nFw5Xqew1oU6oFwtXUB-11" target="1nFw5Xqew1oU6oFwtXUB-5">
          <mxGeometry relative="1" as="geometry" />
        </mxCell>
        <mxCell id="1nFw5Xqew1oU6oFwtXUB-11" value="Card_Num" style="ellipse;whiteSpace=wrap;html=1;align=center;" vertex="1" parent="1">
          <mxGeometry x="-1110" y="370" width="100" height="40" as="geometry" />
        </mxCell>
        <mxCell id="1nFw5Xqew1oU6oFwtXUB-14" style="edgeStyle=orthogonalEdgeStyle;rounded=0;orthogonalLoop=1;jettySize=auto;html=1;entryX=0;entryY=1;entryDx=0;entryDy=0;" edge="1" parent="1" source="1nFw5Xqew1oU6oFwtXUB-13" target="1nFw5Xqew1oU6oFwtXUB-5">
          <mxGeometry relative="1" as="geometry" />
        </mxCell>
        <mxCell id="1nFw5Xqew1oU6oFwtXUB-13" value="Exp_Date" style="ellipse;whiteSpace=wrap;html=1;align=center;" vertex="1" parent="1">
          <mxGeometry x="-1080" y="470" width="100" height="40" as="geometry" />
        </mxCell>
      </root>
    </mxGraphModel>
  </diagram>
</mxfile>
